<svg width="10" height="10" viewBox="0 0 10 10" fill="none" xmlns="http://www.w3.org/2000/svg">
<g clip-path="url(#clip0_13_725)">
<path d="M4.16675 5.41667C4.34569 5.65589 4.57398 5.85383 4.83614 5.99706C5.09831 6.1403 5.38821 6.22547 5.68619 6.24681C5.98416 6.26815 6.28324 6.22516 6.56314 6.12075C6.84304 6.01634 7.09721 5.85295 7.30842 5.64167L8.55842 4.39167C8.93791 3.99875 9.1479 3.4725 9.14315 2.92625C9.13841 2.38001 8.9193 1.85748 8.53304 1.47122C8.14677 1.08495 7.62424 0.865848 7.078 0.861102C6.53176 0.856355 6.0055 1.06634 5.61258 1.44584L4.89591 2.15834" stroke="white" stroke-linecap="round" stroke-linejoin="round"/>
<path d="M5.83342 4.58334C5.65448 4.34412 5.42618 4.14618 5.16402 4.00295C4.90186 3.85972 4.61196 3.77454 4.31398 3.7532C4.016 3.73186 3.71692 3.77485 3.43702 3.87927C3.15712 3.98368 2.90295 4.14706 2.69175 4.35834L1.44175 5.60834C1.06225 6.00126 0.852266 6.52752 0.857012 7.07376C0.861759 7.62 1.08086 8.14253 1.46713 8.5288C1.85339 8.91506 2.37592 9.13416 2.92216 9.13891C3.46841 9.14366 3.99466 8.93367 4.38758 8.55417L5.10008 7.84167" stroke="white" stroke-linecap="round" stroke-linejoin="round"/>
</g>
<defs>
<clipPath id="clip0_13_725">
<rect width="10" height="10" fill="white"/>
</clipPath>
</defs>
</svg>
