<svg width="24" height="24" viewBox="0 0 24 24" fill="none" xmlns="http://www.w3.org/2000/svg">
<path d="M17.3408 13.4678C19.6378 13.4678 21.5 15.33 21.5 17.627C21.4998 19.9238 19.6377 21.7861 17.3408 21.7861C15.044 21.7861 13.1818 19.9237 13.1816 17.627C13.1816 15.33 15.0439 13.4678 17.3408 13.4678ZM3.19727 13.9043H9.24805C9.63274 13.9045 9.94434 14.2168 9.94434 14.6016V20.6523C9.94414 21.0369 9.63261 21.3484 9.24805 21.3486H3.19727C2.81252 21.3486 2.5002 21.037 2.5 20.6523V14.6016C2.5 14.2167 2.8124 13.9043 3.19727 13.9043ZM10.583 2.86426C10.8468 2.37873 11.5438 2.37873 11.8076 2.86426L15.5537 9.75781C15.8058 10.2221 15.4697 10.787 14.9414 10.7871H7.44922C6.92094 10.7869 6.58481 10.2221 6.83691 9.75781L10.583 2.86426Z" stroke="#858585"/>
</svg>
